<svg version="1.1" id="Layer_1" xmlns="http://www.w3.org/2000/svg" xmlns:xlink="http://www.w3.org/1999/xlink" x="0px" y="0px" width="2816" viewBox="901 215 1013 860" enable-background="new 0 0 2816 1536" xml:space="preserve" height="1536">
  <metadata>
    <?xpacket begin="" id="W5M0MpCehiHzreSzNTczkc9d"?>
    <x:xmpmeta xmlns:x="adobe:ns:meta/" x:xmptk="XMP Core 6.0.0">
      <rdf:RDF xmlns:rdf="http://www.w3.org/1999/02/22-rdf-syntax-ns#">
        <rdf:Description rdf:about="" xmlns:xmp="http://ns.adobe.com/xap/1.0/" xmlns:xmpMM="http://ns.adobe.com/xap/1.0/mm/" xmlns:dc="http://purl.org/dc/elements/1.1/" xmlns:dcterms="http://purl.org/dc/terms/" xmpMM:DocumentID="xmp.did:cb9f5498-bb58-4572-8043-8c369e6bfb9b" xmpMM:InstanceID="xmp.iid:cb9f5498-bb58-4572-8043-8c369e6bfb9b" dcterms:provenance="https://cai-manifests.adobe.com/manifests/urn-c2pa-cead2547-e605-4fb0-a4a2-08a4d62317e5-adobe"> </rdf:Description>
      </rdf:RDF>
    </x:xmpmeta>
<?xpacket end="w"?></metadata>
<path fill="#F4F6FE" opacity="1.000000" stroke="none" d="&#xA;M1700.000000,1538.000000 &#xA;	C1133.398193,1538.000000 567.796387,1538.000000 2.097306,1538.000000 &#xA;	C2.097306,1026.123657 2.097306,514.247192 2.097306,2.185379 &#xA;	C940.435425,2.185379 1878.870972,2.185379 2817.653320,2.185379 &#xA;	C2817.653320,513.999817 2817.653320,1025.999878 2817.653320,1538.000000 &#xA;	C2445.579834,1538.000000 2073.290039,1538.000000 1700.000000,1538.000000 &#xA;M1627.495972,528.482056 &#xA;	C1655.463013,519.173584 1683.430176,509.865082 1711.927490,500.380127 &#xA;	C1703.698608,468.129486 1695.838257,437.201874 1687.865479,406.303314 &#xA;	C1687.209717,403.761688 1685.945679,401.334564 1684.701660,398.993774 &#xA;	C1672.831665,376.659027 1648.601807,367.363159 1623.191528,375.814850 &#xA;	C1565.073364,395.145294 1507.025146,414.686707 1448.951294,434.150085 &#xA;	C1349.539917,467.467590 1250.135742,500.805756 1150.714722,534.094238 &#xA;	C1137.457275,538.533081 1124.205200,543.025391 1110.789673,546.941406 &#xA;	C1101.589478,549.627014 1093.381958,545.176086 1090.616699,536.985168 &#xA;	C1087.582764,527.998718 1091.397095,519.858093 1100.750732,515.989868 &#xA;	C1105.046753,514.213196 1109.557251,512.953430 1113.975708,511.474762 &#xA;	C1268.944824,459.612762 1423.915649,407.755127 1578.876831,355.869263 &#xA;	C1581.325684,355.049316 1583.659790,353.886414 1586.403809,352.733917 &#xA;	C1585.769897,350.760498 1585.384521,349.177307 1584.765137,347.691711 &#xA;	C1578.488892,332.636841 1571.639160,317.795898 1565.986084,302.511871 &#xA;	C1555.428101,273.966797 1521.143799,260.868958 1492.176392,274.267029 &#xA;	C1417.843750,308.647430 1343.145508,342.237701 1268.570679,376.093506 &#xA;	C1202.179321,406.234161 1135.906250,436.641724 1069.281982,466.258881 &#xA;	C1039.397827,479.543549 1028.502686,512.059998 1036.910156,538.228638 &#xA;	C1055.538574,596.210754 1072.486938,654.732239 1090.160156,713.021729 &#xA;	C1117.394531,802.846130 1145.247925,892.489319 1171.586182,982.575623 &#xA;	C1180.334106,1012.497253 1208.910889,1037.480713 1248.421387,1022.138306 &#xA;	C1263.294800,1016.362793 1278.682739,1011.913940 1293.830078,1006.842285 &#xA;	C1407.137207,968.904358 1520.444946,930.968689 1633.747437,893.016907 &#xA;	C1670.358643,880.753662 1706.759888,867.818359 1743.621948,856.364258 &#xA;	C1770.752441,847.933960 1790.817139,820.959595 1781.358643,787.213013 &#xA;	C1775.973633,767.999634 1772.095825,748.364502 1767.506836,728.926941 &#xA;	C1764.996582,718.293945 1762.419067,707.676880 1759.725952,696.444153 &#xA;	C1755.731934,697.629272 1752.587646,698.463684 1749.507690,699.491150 &#xA;	C1710.356445,712.553040 1671.158447,725.479187 1632.098022,738.807617 &#xA;	C1616.993896,743.961548 1601.764282,746.075806 1585.904053,744.255615 &#xA;	C1540.697266,739.067566 1500.537354,703.634155 1498.185425,649.412415 &#xA;	C1496.186279,603.326477 1524.695923,563.265076 1568.227905,548.299011 &#xA;	C1587.428223,541.697876 1606.757568,535.471802 1627.495972,528.482056 &#xA;M1622.174927,565.431091 &#xA;	C1608.878418,569.735840 1595.505615,573.822754 1582.318726,578.440491 &#xA;	C1576.069824,580.628784 1569.720215,583.127075 1564.201538,586.698303 &#xA;	C1541.375244,601.469543 1529.906860,622.620117 1531.589844,649.930908 &#xA;	C1533.210327,676.226196 1546.759888,694.871216 1570.566162,705.870789 &#xA;	C1587.823608,713.844543 1605.474121,713.034973 1623.135254,707.024109 &#xA;	C1636.365967,702.521118 1649.554810,697.893250 1662.820068,693.495056 &#xA;	C1696.924927,682.187195 1731.052612,670.948425 1765.189941,659.738708 &#xA;	C1780.977051,654.554749 1791.941772,639.032471 1788.757812,623.655518 &#xA;	C1783.631958,598.900452 1777.733154,574.283569 1771.355835,549.818054 &#xA;	C1767.820312,536.255066 1755.516113,527.603333 1741.425293,527.770813 &#xA;	C1735.898071,527.836426 1730.197510,529.132507 1724.909058,530.877930 &#xA;	C1691.100586,542.036133 1657.384888,553.475586 1622.174927,565.431091 &#xA;M1329.863159,1149.734497 &#xA;	C1325.480103,1149.128296 1324.463745,1151.954712 1323.359253,1155.437866 &#xA;	C1317.632935,1173.496826 1311.700928,1191.490845 1305.743652,1209.475464 &#xA;	C1304.988525,1211.754883 1303.664429,1213.845825 1302.604004,1216.024048 &#xA;	C1301.930054,1216.001587 1301.256104,1215.979004 1300.582275,1215.956543 &#xA;	C1294.168701,1193.906494 1287.755249,1171.856323 1281.527222,1150.444092 &#xA;	C1270.217773,1150.444092 1260.148071,1150.444092 1249.094360,1150.444092 &#xA;	C1261.811523,1191.307373 1274.230713,1231.213501 1286.710571,1271.313965 &#xA;	C1295.983154,1271.313965 1304.567871,1271.313965 1313.808105,1271.313965 &#xA;	C1321.960938,1246.506226 1330.168457,1221.532471 1338.375854,1196.558838 &#xA;	C1338.947632,1196.579224 1339.519409,1196.599609 1340.091187,1196.619995 &#xA;	C1348.336426,1221.457397 1356.581665,1246.294800 1364.897949,1271.346191 &#xA;	C1373.958252,1271.346191 1382.563110,1271.346191 1392.003052,1271.346191 &#xA;	C1404.662842,1231.280762 1417.397095,1190.980225 1430.316772,1150.092773 &#xA;	C1418.686401,1150.092773 1408.467285,1150.092773 1397.722168,1150.092773 &#xA;	C1391.011841,1172.909546 1384.369995,1195.493164 1377.728271,1218.076782 &#xA;	C1377.092896,1218.153198 1376.457520,1218.229614 1375.822144,1218.306030 &#xA;	C1368.388794,1195.450928 1360.955444,1172.595947 1353.518799,1149.730835 &#xA;	C1345.630981,1149.730835 1338.652344,1149.730835 1329.863159,1149.734497 &#xA;M1026.886475,1146.175415 &#xA;	C999.914368,1145.130005 977.092041,1164.283936 970.859924,1189.858887 &#xA;	C967.560181,1203.400146 967.303894,1216.933960 970.548340,1230.446289 &#xA;	C980.122559,1270.320435 1021.117126,1287.138794 1055.713623,1265.496948 &#xA;	C1056.246216,1265.163696 1056.958618,1265.117554 1057.703003,1264.904297 &#xA;	C1058.377686,1267.027100 1059.049072,1269.139526 1059.749390,1271.342773 &#xA;	C1068.628052,1271.342773 1077.165649,1271.342773 1085.701782,1271.342773 &#xA;	C1085.701782,1216.499878 1085.701782,1162.086426 1085.701782,1107.874878 &#xA;	C1075.031250,1107.874878 1065.211548,1107.874878 1054.520752,1107.874878 &#xA;	C1054.520752,1123.134033 1054.520752,1137.641235 1054.520752,1151.768066 &#xA;	C1045.367554,1149.796387 1037.023438,1147.999023 1026.886475,1146.175415 &#xA;M1662.791626,1236.292480 &#xA;	C1669.934937,1246.320557 1676.966675,1256.431763 1684.308105,1266.312622 &#xA;	C1685.941895,1268.511597 1688.606323,1271.326904 1690.898682,1271.423340 &#xA;	C1702.998657,1271.932251 1715.131470,1271.661987 1729.347778,1271.661987 &#xA;	C1712.743286,1249.856079 1697.507202,1229.847412 1682.006836,1209.491699 &#xA;	C1695.996216,1189.864746 1709.781616,1170.524048 1724.326294,1150.118164 &#xA;	C1710.874634,1150.118164 1699.027100,1150.118164 1686.655884,1150.118164 &#xA;	C1674.128662,1167.473022 1661.396362,1185.112061 1648.664062,1202.751221 &#xA;	C1647.917358,1202.520386 1647.170776,1202.289673 1646.424072,1202.058838 &#xA;	C1646.424072,1170.742798 1646.424072,1139.426636 1646.424072,1108.210938 &#xA;	C1634.981812,1108.210938 1624.834106,1108.210938 1614.219604,1108.210938 &#xA;	C1614.450684,1162.939209 1613.772095,1217.023682 1614.436768,1271.422607 &#xA;	C1625.669800,1271.422607 1635.572021,1271.422607 1646.310913,1271.422607 &#xA;	C1646.310913,1262.226318 1646.311035,1253.307129 1646.311035,1244.388062 &#xA;	C1646.311035,1235.553223 1646.310913,1226.718506 1646.310913,1217.883667 &#xA;	C1647.084473,1217.615723 1647.857910,1217.347778 1648.631470,1217.079712 &#xA;	C1653.076050,1223.094727 1657.520752,1229.109619 1662.791626,1236.292480 &#xA;M1813.468140,1238.329590 &#xA;	C1805.260620,1246.523071 1795.565063,1248.282227 1785.010620,1244.144409 &#xA;	C1774.331909,1239.958130 1770.894775,1230.729126 1769.928833,1220.235718 &#xA;	C1769.593506,1216.594971 1769.617310,1212.914307 1769.607666,1209.251465 &#xA;	C1769.563721,1192.593018 1769.586914,1175.934448 1769.533203,1159.276245 &#xA;	C1769.523804,1156.367188 1769.261841,1153.458862 1769.106567,1150.351318 &#xA;	C1758.374023,1150.351318 1748.259766,1150.351318 1737.561523,1150.351318 &#xA;	C1737.561523,1162.934570 1737.521606,1174.903809 1737.571899,1186.872681 &#xA;	C1737.632202,1201.195679 1737.054565,1215.567017 1738.025146,1229.830933 &#xA;	C1739.927734,1257.791504 1758.872925,1274.742798 1786.789062,1274.709106 &#xA;	C1799.572876,1274.693726 1811.022217,1270.996338 1821.164917,1263.193726 &#xA;	C1821.818970,1262.690796 1822.870239,1262.704224 1823.770020,1262.468628 &#xA;	C1824.274658,1265.572632 1824.734741,1268.402466 1825.184570,1271.169434 &#xA;	C1834.401001,1271.169434 1842.909912,1271.169434 1851.651123,1271.169434 &#xA;	C1851.651123,1230.482544 1851.651123,1190.384521 1851.651123,1150.223145 &#xA;	C1841.153687,1150.223145 1831.299805,1150.223145 1820.459717,1150.223145 &#xA;	C1820.459717,1153.950562 1820.462158,1157.195190 1820.459473,1160.439697 &#xA;	C1820.444336,1178.763794 1820.401367,1197.088013 1820.424438,1215.412109 &#xA;	C1820.434204,1223.220093 1819.390137,1230.698364 1813.468140,1238.329590 &#xA;M1150.068115,1232.101196 &#xA;	C1148.836792,1224.936646 1146.762207,1217.798096 1146.540894,1210.602539 &#xA;	C1145.998291,1192.962891 1146.336182,1175.296753 1146.249634,1157.641602 &#xA;	C1146.237305,1155.116577 1145.834961,1152.593506 1145.642944,1150.408447 &#xA;	C1134.744995,1150.408447 1124.618408,1150.408447 1114.253296,1150.408447 &#xA;	C1114.253296,1175.749268 1113.765991,1200.375122 1114.530273,1224.962036 &#xA;	C1114.781616,1233.046875 1117.381226,1241.395752 1120.480225,1248.981079 &#xA;	C1126.009521,1262.514648 1136.648071,1270.856934 1151.099121,1273.497070 &#xA;	C1166.333130,1276.280396 1180.951416,1274.340698 1194.352051,1265.974487 &#xA;	C1196.508911,1264.627930 1198.706787,1263.346924 1201.468262,1261.684937 &#xA;	C1201.898438,1265.435181 1202.221802,1268.253784 1202.556030,1271.166504 &#xA;	C1211.850342,1271.166504 1220.681396,1271.166504 1229.620728,1271.166504 &#xA;	C1229.620728,1230.466064 1229.620728,1190.361328 1229.620728,1150.466064 &#xA;	C1218.864624,1150.466064 1208.765869,1150.466064 1198.202515,1150.466064 &#xA;	C1198.202515,1170.191772 1198.223267,1189.141113 1198.187744,1208.090332 &#xA;	C1198.178955,1212.751099 1198.353516,1217.454834 1197.812378,1222.064575 &#xA;	C1195.880127,1238.521973 1183.614258,1248.203369 1168.097046,1245.655762 &#xA;	C1160.431396,1244.397339 1154.548950,1240.379395 1150.068115,1232.101196 &#xA;M1522.353882,1199.018433 &#xA;	C1522.338989,1211.346924 1521.973267,1223.687744 1522.409058,1236.000244 &#xA;	C1522.832886,1247.976074 1525.426392,1259.609619 1536.716187,1266.251343 &#xA;	C1553.518433,1276.136475 1571.368408,1275.372192 1589.892456,1270.658691 &#xA;	C1589.892456,1265.724731 1589.892456,1261.742065 1589.892456,1257.759277 &#xA;	C1589.892456,1253.609863 1589.892456,1249.460449 1589.892456,1245.469727 &#xA;	C1582.793457,1245.823120 1577.140625,1246.496338 1571.517700,1246.302612 &#xA;	C1559.805664,1245.899536 1554.590820,1240.549683 1554.285400,1228.888306 &#xA;	C1554.067505,1220.563843 1554.233032,1212.229126 1554.231079,1203.899048 &#xA;	C1554.228760,1194.321655 1554.230591,1184.744141 1554.230591,1173.874146 &#xA;	C1566.601440,1173.874146 1578.010864,1173.874146 1589.033569,1173.874146 &#xA;	C1589.033569,1165.058594 1589.033569,1157.593872 1589.033569,1149.213867 &#xA;	C1577.120972,1149.213867 1565.948730,1149.213867 1554.079102,1149.213867 &#xA;	C1554.079102,1137.084717 1554.079102,1125.875366 1554.079102,1114.428833 &#xA;	C1543.243164,1114.428833 1533.161133,1114.428833 1521.867554,1114.428833 &#xA;	C1521.867554,1126.486694 1521.867554,1137.923340 1521.867554,1150.183716 &#xA;	C1514.498047,1150.183716 1508.348999,1150.183716 1502.534546,1150.183716 &#xA;	C1502.534546,1158.583496 1502.534546,1166.059937 1502.534546,1174.352295 &#xA;	C1509.432983,1174.352295 1515.619385,1174.352295 1522.357910,1174.352295 &#xA;	C1522.357910,1182.463257 1522.357910,1189.746216 1522.353882,1199.018433 &#xA;M1450.514893,1260.575562 &#xA;	C1450.664429,1264.109619 1450.814087,1267.643677 1450.969238,1271.310059 &#xA;	C1461.921997,1271.310059 1471.797729,1271.310059 1482.192383,1271.310059 &#xA;	C1482.192383,1230.747314 1482.192383,1190.597168 1482.192383,1150.402100 &#xA;	C1471.639526,1150.402100 1461.511841,1150.402100 1450.509766,1150.402100 &#xA;	C1450.509766,1186.921021 1450.509766,1222.796509 1450.514893,1260.575562 &#xA;M1483.037109,1113.484863 &#xA;	C1482.860474,1110.576538 1482.683716,1107.668213 1482.522827,1105.018677 &#xA;	C1471.552368,1105.018677 1461.412842,1105.018677 1451.026855,1105.018677 &#xA;	C1451.026855,1114.596313 1451.026855,1123.406982 1451.026855,1133.168335 &#xA;	C1456.552490,1133.168335 1461.484985,1133.168335 1466.417603,1133.168335 &#xA;	C1471.656006,1133.168335 1476.894409,1133.168335 1483.041870,1133.168335 &#xA;	C1483.041870,1126.484253 1483.041870,1120.900635 1483.037109,1113.484863 &#xA;z"></path>
<path fill="#026B4E" opacity="1.000000" stroke="none" d="&#xA;M1626.762207,528.778748 &#xA;	C1606.757568,535.471802 1587.428223,541.697876 1568.227905,548.299011 &#xA;	C1524.695923,563.265076 1496.186279,603.326477 1498.185425,649.412415 &#xA;	C1500.537354,703.634155 1540.697266,739.067566 1585.904053,744.255615 &#xA;	C1601.764282,746.075806 1616.993896,743.961548 1632.098022,738.807617 &#xA;	C1671.158447,725.479187 1710.356445,712.553040 1749.507690,699.491150 &#xA;	C1752.587646,698.463684 1755.731934,697.629272 1759.725952,696.444153 &#xA;	C1762.419067,707.676880 1764.996582,718.293945 1767.506836,728.926941 &#xA;	C1772.095825,748.364502 1775.973633,767.999634 1781.358643,787.213013 &#xA;	C1790.817139,820.959595 1770.752441,847.933960 1743.621948,856.364258 &#xA;	C1706.759888,867.818359 1670.358643,880.753662 1633.747437,893.016907 &#xA;	C1520.444946,930.968689 1407.137207,968.904358 1293.830078,1006.842285 &#xA;	C1278.682739,1011.913940 1263.294800,1016.362793 1248.421387,1022.138306 &#xA;	C1208.910889,1037.480713 1180.334106,1012.497253 1171.586182,982.575623 &#xA;	C1145.247925,892.489319 1117.394531,802.846130 1090.160156,713.021729 &#xA;	C1072.486938,654.732239 1055.538574,596.210754 1036.910156,538.228638 &#xA;	C1028.502686,512.059998 1039.397827,479.543549 1069.281982,466.258881 &#xA;	C1135.906250,436.641724 1202.179321,406.234161 1268.570679,376.093506 &#xA;	C1343.145508,342.237701 1417.843750,308.647430 1492.176392,274.267029 &#xA;	C1521.143799,260.868958 1555.428101,273.966797 1565.986084,302.511871 &#xA;	C1571.639160,317.795898 1578.488892,332.636841 1584.765137,347.691711 &#xA;	C1585.384521,349.177307 1585.769897,350.760498 1586.403809,352.733917 &#xA;	C1583.659790,353.886414 1581.325684,355.049316 1578.876831,355.869263 &#xA;	C1423.915649,407.755127 1268.944824,459.612762 1113.975708,511.474762 &#xA;	C1109.557251,512.953430 1105.046753,514.213196 1100.750732,515.989868 &#xA;	C1091.397095,519.858093 1087.582764,527.998718 1090.616699,536.985168 &#xA;	C1093.381958,545.176086 1101.589478,549.627014 1110.789673,546.941406 &#xA;	C1124.205200,543.025391 1137.457275,538.533081 1150.714722,534.094238 &#xA;	C1250.135742,500.805756 1349.539917,467.467590 1448.951294,434.150085 &#xA;	C1507.025146,414.686707 1565.073364,395.145294 1623.191528,375.814850 &#xA;	C1648.601807,367.363159 1672.831665,376.659027 1684.701660,398.993774 &#xA;	C1685.945679,401.334564 1687.209717,403.761688 1687.865479,406.303314 &#xA;	C1695.838257,437.201874 1703.698608,468.129486 1711.927490,500.380127 &#xA;	C1683.430176,509.865082 1655.463013,519.173584 1626.762207,528.778748 &#xA;z"></path>
<path fill="#046B4F" opacity="1.000000" stroke="none" d="&#xA;M1622.906738,565.126831 &#xA;	C1657.384888,553.475586 1691.100586,542.036133 1724.909058,530.877930 &#xA;	C1730.197510,529.132507 1735.898071,527.836426 1741.425293,527.770813 &#xA;	C1755.516113,527.603333 1767.820312,536.255066 1771.355835,549.818054 &#xA;	C1777.733154,574.283569 1783.631958,598.900452 1788.757812,623.655518 &#xA;	C1791.941772,639.032471 1780.977051,654.554749 1765.189941,659.738708 &#xA;	C1731.052612,670.948425 1696.924927,682.187195 1662.820068,693.495056 &#xA;	C1649.554810,697.893250 1636.365967,702.521118 1623.135254,707.024109 &#xA;	C1605.474121,713.034973 1587.823608,713.844543 1570.566162,705.870789 &#xA;	C1546.759888,694.871216 1533.210327,676.226196 1531.589844,649.930908 &#xA;	C1529.906860,622.620117 1541.375244,601.469543 1564.201538,586.698303 &#xA;	C1569.720215,583.127075 1576.069824,580.628784 1582.318726,578.440491 &#xA;	C1595.505615,573.822754 1608.878418,569.735840 1622.906738,565.126831 &#xA;M1640.329590,642.879517 &#xA;	C1639.125854,615.770264 1615.803833,598.410950 1591.144043,606.269165 &#xA;	C1573.612549,611.855835 1562.398193,629.171326 1564.656494,647.167053 &#xA;	C1567.016479,665.972168 1581.236938,680.008789 1599.546387,680.931335 &#xA;	C1623.192627,682.122742 1640.077148,663.794922 1640.329590,642.879517 &#xA;z"></path>
<path fill="#0F2037" opacity="1.000000" stroke="none" d="&#xA;M1330.768555,1149.732666 &#xA;	C1338.652344,1149.730835 1345.630981,1149.730835 1353.518799,1149.730835 &#xA;	C1360.955444,1172.595947 1368.388794,1195.450928 1375.822144,1218.306030 &#xA;	C1376.457520,1218.229614 1377.092896,1218.153198 1377.728271,1218.076782 &#xA;	C1384.369995,1195.493164 1391.011841,1172.909546 1397.722168,1150.092773 &#xA;	C1408.467285,1150.092773 1418.686401,1150.092773 1430.316772,1150.092773 &#xA;	C1417.397095,1190.980225 1404.662842,1231.280762 1392.003052,1271.346191 &#xA;	C1382.563110,1271.346191 1373.958252,1271.346191 1364.897949,1271.346191 &#xA;	C1356.581665,1246.294800 1348.336426,1221.457397 1340.091187,1196.619995 &#xA;	C1339.519409,1196.599609 1338.947632,1196.579224 1338.375854,1196.558838 &#xA;	C1330.168457,1221.532471 1321.960938,1246.506226 1313.808105,1271.313965 &#xA;	C1304.567871,1271.313965 1295.983154,1271.313965 1286.710571,1271.313965 &#xA;	C1274.230713,1231.213501 1261.811523,1191.307373 1249.094360,1150.444092 &#xA;	C1260.148071,1150.444092 1270.217773,1150.444092 1281.527222,1150.444092 &#xA;	C1287.755249,1171.856323 1294.168701,1193.906494 1300.582275,1215.956543 &#xA;	C1301.256104,1215.979004 1301.930054,1216.001587 1302.604004,1216.024048 &#xA;	C1303.664429,1213.845825 1304.988525,1211.754883 1305.743652,1209.475464 &#xA;	C1311.700928,1191.490845 1317.632935,1173.496826 1323.359253,1155.437866 &#xA;	C1324.463745,1151.954712 1325.480103,1149.128296 1330.768555,1149.732666 &#xA;z"></path>
<path fill="#0F2038" opacity="1.000000" stroke="none" d="&#xA;M1027.782959,1146.188477 &#xA;	C1037.023438,1147.999023 1045.367554,1149.796387 1054.520752,1151.768066 &#xA;	C1054.520752,1137.641235 1054.520752,1123.134033 1054.520752,1107.874878 &#xA;	C1065.211548,1107.874878 1075.031250,1107.874878 1085.701782,1107.874878 &#xA;	C1085.701782,1162.086426 1085.701782,1216.499878 1085.701782,1271.342773 &#xA;	C1077.165649,1271.342773 1068.628052,1271.342773 1059.749390,1271.342773 &#xA;	C1059.049072,1269.139526 1058.377686,1267.027100 1057.703003,1264.904297 &#xA;	C1056.958618,1265.117554 1056.246216,1265.163696 1055.713623,1265.496948 &#xA;	C1021.117126,1287.138794 980.122559,1270.320435 970.548340,1230.446289 &#xA;	C967.303894,1216.933960 967.560181,1203.400146 970.859924,1189.858887 &#xA;	C977.092041,1164.283936 999.914368,1145.130005 1027.782959,1146.188477 &#xA;M1051.343384,1236.018799 &#xA;	C1058.828003,1222.384644 1059.082886,1207.960083 1055.325073,1193.384888 &#xA;	C1052.260620,1181.499268 1044.027466,1174.924316 1032.685425,1174.150757 &#xA;	C1020.537781,1173.322144 1011.376648,1178.584595 1006.181335,1189.726318 &#xA;	C1000.887085,1201.080322 1000.845398,1212.911255 1003.734924,1224.859863 &#xA;	C1006.251221,1235.264648 1011.899353,1243.225464 1022.709656,1245.915527 &#xA;	C1033.492065,1248.598267 1043.218506,1246.579224 1051.343384,1236.018799 &#xA;z"></path>
<path fill="#102138" opacity="1.000000" stroke="none" d="&#xA;M1662.378418,1235.708496 &#xA;	C1657.520752,1229.109619 1653.076050,1223.094727 1648.631470,1217.079712 &#xA;	C1647.857910,1217.347778 1647.084473,1217.615723 1646.310913,1217.883667 &#xA;	C1646.310913,1226.718506 1646.311035,1235.553223 1646.311035,1244.388062 &#xA;	C1646.311035,1253.307129 1646.310913,1262.226318 1646.310913,1271.422607 &#xA;	C1635.572021,1271.422607 1625.669800,1271.422607 1614.436768,1271.422607 &#xA;	C1613.772095,1217.023682 1614.450684,1162.939209 1614.219604,1108.210938 &#xA;	C1624.834106,1108.210938 1634.981812,1108.210938 1646.424072,1108.210938 &#xA;	C1646.424072,1139.426636 1646.424072,1170.742798 1646.424072,1202.058838 &#xA;	C1647.170776,1202.289673 1647.917358,1202.520386 1648.664062,1202.751221 &#xA;	C1661.396362,1185.112061 1674.128662,1167.473022 1686.655884,1150.118164 &#xA;	C1699.027100,1150.118164 1710.874634,1150.118164 1724.326294,1150.118164 &#xA;	C1709.781616,1170.524048 1695.996216,1189.864746 1682.006836,1209.491699 &#xA;	C1697.507202,1229.847412 1712.743286,1249.856079 1729.347778,1271.661987 &#xA;	C1715.131470,1271.661987 1702.998657,1271.932251 1690.898682,1271.423340 &#xA;	C1688.606323,1271.326904 1685.941895,1268.511597 1684.308105,1266.312622 &#xA;	C1676.966675,1256.431763 1669.934937,1246.320557 1662.378418,1235.708496 &#xA;z"></path>
<path fill="#102138" opacity="1.000000" stroke="none" d="&#xA;M1813.938965,1237.717285 &#xA;	C1819.390137,1230.698364 1820.434204,1223.220093 1820.424438,1215.412109 &#xA;	C1820.401367,1197.088013 1820.444336,1178.763794 1820.459473,1160.439697 &#xA;	C1820.462158,1157.195190 1820.459717,1153.950562 1820.459717,1150.223145 &#xA;	C1831.299805,1150.223145 1841.153687,1150.223145 1851.651123,1150.223145 &#xA;	C1851.651123,1190.384521 1851.651123,1230.482544 1851.651123,1271.169434 &#xA;	C1842.909912,1271.169434 1834.401001,1271.169434 1825.184570,1271.169434 &#xA;	C1824.734741,1268.402466 1824.274658,1265.572632 1823.770020,1262.468628 &#xA;	C1822.870239,1262.704224 1821.818970,1262.690796 1821.164917,1263.193726 &#xA;	C1811.022217,1270.996338 1799.572876,1274.693726 1786.789062,1274.709106 &#xA;	C1758.872925,1274.742798 1739.927734,1257.791504 1738.025146,1229.830933 &#xA;	C1737.054565,1215.567017 1737.632202,1201.195679 1737.571899,1186.872681 &#xA;	C1737.521606,1174.903809 1737.561523,1162.934570 1737.561523,1150.351318 &#xA;	C1748.259766,1150.351318 1758.374023,1150.351318 1769.106567,1150.351318 &#xA;	C1769.261841,1153.458862 1769.523804,1156.367188 1769.533203,1159.276245 &#xA;	C1769.586914,1175.934448 1769.563721,1192.593018 1769.607666,1209.251465 &#xA;	C1769.617310,1212.914307 1769.593506,1216.594971 1769.928833,1220.235718 &#xA;	C1770.894775,1230.729126 1774.331909,1239.958130 1785.010620,1244.144409 &#xA;	C1795.565063,1248.282227 1805.260620,1246.523071 1813.938965,1237.717285 &#xA;z"></path>
<path fill="#0F2037" opacity="1.000000" stroke="none" d="&#xA;M1150.386963,1232.818604 &#xA;	C1154.548950,1240.379395 1160.431396,1244.397339 1168.097046,1245.655762 &#xA;	C1183.614258,1248.203369 1195.880127,1238.521973 1197.812378,1222.064575 &#xA;	C1198.353516,1217.454834 1198.178955,1212.751099 1198.187744,1208.090332 &#xA;	C1198.223267,1189.141113 1198.202515,1170.191772 1198.202515,1150.466064 &#xA;	C1208.765869,1150.466064 1218.864624,1150.466064 1229.620728,1150.466064 &#xA;	C1229.620728,1190.361328 1229.620728,1230.466064 1229.620728,1271.166504 &#xA;	C1220.681396,1271.166504 1211.850342,1271.166504 1202.556030,1271.166504 &#xA;	C1202.221802,1268.253784 1201.898438,1265.435181 1201.468262,1261.684937 &#xA;	C1198.706787,1263.346924 1196.508911,1264.627930 1194.352051,1265.974487 &#xA;	C1180.951416,1274.340698 1166.333130,1276.280396 1151.099121,1273.497070 &#xA;	C1136.648071,1270.856934 1126.009521,1262.514648 1120.480225,1248.981079 &#xA;	C1117.381226,1241.395752 1114.781616,1233.046875 1114.530273,1224.962036 &#xA;	C1113.765991,1200.375122 1114.253296,1175.749268 1114.253296,1150.408447 &#xA;	C1124.618408,1150.408447 1134.744995,1150.408447 1145.642944,1150.408447 &#xA;	C1145.834961,1152.593506 1146.237305,1155.116577 1146.249634,1157.641602 &#xA;	C1146.336182,1175.296753 1145.998291,1192.962891 1146.540894,1210.602539 &#xA;	C1146.762207,1217.798096 1148.836792,1224.936646 1150.386963,1232.818604 &#xA;z"></path>
<path fill="#102138" opacity="1.000000" stroke="none" d="&#xA;M1522.355957,1198.023926 &#xA;	C1522.357910,1189.746216 1522.357910,1182.463257 1522.357910,1174.352295 &#xA;	C1515.619385,1174.352295 1509.432983,1174.352295 1502.534546,1174.352295 &#xA;	C1502.534546,1166.059937 1502.534546,1158.583496 1502.534546,1150.183716 &#xA;	C1508.348999,1150.183716 1514.498047,1150.183716 1521.867554,1150.183716 &#xA;	C1521.867554,1137.923340 1521.867554,1126.486694 1521.867554,1114.428833 &#xA;	C1533.161133,1114.428833 1543.243164,1114.428833 1554.079102,1114.428833 &#xA;	C1554.079102,1125.875366 1554.079102,1137.084717 1554.079102,1149.213867 &#xA;	C1565.948730,1149.213867 1577.120972,1149.213867 1589.033569,1149.213867 &#xA;	C1589.033569,1157.593872 1589.033569,1165.058594 1589.033569,1173.874146 &#xA;	C1578.010864,1173.874146 1566.601440,1173.874146 1554.230591,1173.874146 &#xA;	C1554.230591,1184.744141 1554.228760,1194.321655 1554.231079,1203.899048 &#xA;	C1554.233032,1212.229126 1554.067505,1220.563843 1554.285400,1228.888306 &#xA;	C1554.590820,1240.549683 1559.805664,1245.899536 1571.517700,1246.302612 &#xA;	C1577.140625,1246.496338 1582.793457,1245.823120 1589.892456,1245.469727 &#xA;	C1589.892456,1249.460449 1589.892456,1253.609863 1589.892456,1257.759277 &#xA;	C1589.892456,1261.742065 1589.892456,1265.724731 1589.892456,1270.658691 &#xA;	C1571.368408,1275.372192 1553.518433,1276.136475 1536.716187,1266.251343 &#xA;	C1525.426392,1259.609619 1522.832886,1247.976074 1522.409058,1236.000244 &#xA;	C1521.973267,1223.687744 1522.338989,1211.346924 1522.355957,1198.023926 &#xA;z"></path>
<path fill="#12233A" opacity="1.000000" stroke="none" d="&#xA;M1450.512329,1259.623779 &#xA;	C1450.509766,1222.796509 1450.509766,1186.921021 1450.509766,1150.402100 &#xA;	C1461.511841,1150.402100 1471.639526,1150.402100 1482.192383,1150.402100 &#xA;	C1482.192383,1190.597168 1482.192383,1230.747314 1482.192383,1271.310059 &#xA;	C1471.797729,1271.310059 1461.921997,1271.310059 1450.969238,1271.310059 &#xA;	C1450.814087,1267.643677 1450.664429,1264.109619 1450.512329,1259.623779 &#xA;z"></path>
<path fill="#1A293E" opacity="1.000000" stroke="none" d="&#xA;M1483.039551,1114.401001 &#xA;	C1483.041870,1120.900635 1483.041870,1126.484253 1483.041870,1133.168335 &#xA;	C1476.894409,1133.168335 1471.656006,1133.168335 1466.417603,1133.168335 &#xA;	C1461.484985,1133.168335 1456.552490,1133.168335 1451.026855,1133.168335 &#xA;	C1451.026855,1123.406982 1451.026855,1114.596313 1451.026855,1105.018677 &#xA;	C1461.412842,1105.018677 1471.552368,1105.018677 1482.522827,1105.018677 &#xA;	C1482.683716,1107.668213 1482.860474,1110.576538 1483.039551,1114.401001 &#xA;z"></path>
<path fill="#EEF3FA" opacity="1.000000" stroke="none" d="&#xA;M1640.300293,643.758789 &#xA;	C1640.077148,663.794922 1623.192627,682.122742 1599.546387,680.931335 &#xA;	C1581.236938,680.008789 1567.016479,665.972168 1564.656494,647.167053 &#xA;	C1562.398193,629.171326 1573.612549,611.855835 1591.144043,606.269165 &#xA;	C1615.803833,598.410950 1639.125854,615.770264 1640.300293,643.758789 &#xA;z"></path>
<path fill="#EFF2F9" opacity="1.000000" stroke="none" d="&#xA;M1050.888428,1236.622192 &#xA;	C1043.218506,1246.579224 1033.492065,1248.598267 1022.709656,1245.915527 &#xA;	C1011.899353,1243.225464 1006.251221,1235.264648 1003.734924,1224.859863 &#xA;	C1000.845398,1212.911255 1000.887085,1201.080322 1006.181335,1189.726318 &#xA;	C1011.376648,1178.584595 1020.537781,1173.322144 1032.685425,1174.150757 &#xA;	C1044.027466,1174.924316 1052.260620,1181.499268 1055.325073,1193.384888 &#xA;	C1059.082886,1207.960083 1058.828003,1222.384644 1050.888428,1236.622192 &#xA;z"></path>
</svg>